<?xml version="1.0" encoding="UTF-8"?>
<svg width="210" height="297" xmlns="http://www.w3.org/2000/svg" xmlns:svg="http://www.w3.org/2000/svg" version="1.1">

 <metadata id="metadata1765">image/svg+xml</metadata>
 <g class="layer">
  <title>Layer 1</title>
  <g id="layer1">
   <g id="g2864" transform="matrix(2.09065, 0, 0, 1.83917, 147.172, 50.6912)">
    <path d="m180.08,27.53c-0.25,-0.02 -0.48,-0.02 -0.72,0.01c-0.27,0.04 -0.53,0.13 -0.8,0.24c-0.72,0.14 -1.37,0.46 -1.96,0.99c-2.24,2.03 -3.45,5.68 -4.58,15.14c-0.01,0.09 -0.02,0.17 -0.03,0.27c-0.33,2.74 -0.65,5.88 -0.98,9.7c-0.31,3.44 -0.46,15.53 -0.48,30.42c-0.08,8.53 -0.05,17.71 0.09,27.33c0.14,19.03 0.42,37.59 0.83,46.75c0.34,7.6 0.74,15.15 1.17,22.58c0.14,2.7 0.28,5.2 0.43,7.42c0.07,1.05 0.15,2.15 0.23,3.22c2.67,41.08 6.51,76.16 9.77,86.93c0.02,0.05 0.03,0.09 0.04,0.14c0.03,0.25 0.07,0.51 0.09,0.68c-0.09,0.61 -0.94,0.54 -3.41,-0.01c-17.64,-3.89 -57.01,-3.85 -91.29,0.1c-25.1,2.89 -62.6,12.16 -75.35,18.61l-1.13,0.58c-1.15,0.44 -2.14,0.8 -2.87,0.99c-0.88,0.18 -1.54,0.19 -2.09,0.07l-2.54,-1.68c-6.17,-4.08 -18.46,-10.76 -31.43,-17.29c-1.46,-0.76 -2.89,-1.5 -4.16,-2.13c-4.45,-2.24 -9.09,-4.44 -13.88,-6.61c-4.33,-2.02 -8.51,-3.91 -12.18,-5.46c-55.66,-23.51 -123.41,-40.55 -179.73,-45.21c-6.32,-0.52 -14.09,-0.78 -21.74,-0.82c-1.97,-0.06 -3.81,-0.09 -5.4,-0.09c-2.88,0 -5.6,0.09 -8.21,0.22c-1.76,0.05 -3.43,0.12 -4.97,0.22c-6.46,0.33 -11.31,0.86 -12.72,1.57c-0.96,0.48 -1.74,0.95 -2.37,1.42c-1.49,0.87 -2.23,1.92 -2.23,3.14c0,0.51 0.19,1.17 0.53,1.94c0.2,0.66 0.52,1.39 0.93,2.2c0.97,1.89 4.25,5.7 8.46,10.07c3.33,3.56 7.26,7.38 11.43,11.08c3.8,3.45 7.5,6.63 10.45,8.82c9.5,7.03 28.97,20.3 29.79,20.3c0.33,0 1.96,0.97 3.63,2.15c3.61,2.57 11.5,7.14 21.44,12.57c2.54,1.54 8.36,4.62 15.55,8.32c21.39,11.23 46.47,23.64 61.29,30.01c4.73,2.03 9.74,4.12 14.81,6.21c2.88,1.24 6.64,2.78 11.15,4.55c20.96,8.45 41.4,16.14 49.88,18.6c3.17,0.92 4.63,1.51 5.1,2.2c-0.06,0.58 -0.21,1.47 -0.44,2.63c-4.09,11.88 -8.94,43.34 -8.98,59.01c0,0.87 -0.03,1.69 -0.07,2.45c-0.05,0.44 -0.08,0.72 -0.12,1.1c-0.28,1.67 -0.6,2.67 -0.98,3.03c-0.61,-0.17 -1.74,-0.58 -3.2,-1.16c-1.85,-0.79 -4.24,-1.85 -6.78,-3.03c-5.17,-2.4 -10.51,-4.71 -11.88,-5.14c-1.37,-0.43 -4.74,-1.8 -7.49,-3.04c-6.37,-2.89 -17.54,-7.08 -34,-12.75c-45.29,-15.62 -97.54,-27.79 -142.5,-33.19c-5.21,-0.62 -13.35,-1.29 -21.85,-1.87c-6.59,-0.53 -13.09,-0.93 -19.46,-1.19c-3.01,-0.12 -5.38,-0.19 -7.46,-0.23c-4.71,-0.14 -8.03,-0.14 -8.62,0.09c-0.7,0.27 -1.16,0.81 -1.36,1.72c-0.18,0.42 -0.25,0.91 -0.25,1.51c0,0.01 0.01,0.03 0.01,0.04c0,0.02 -0.01,0.03 -0.01,0.05c0,0.43 0.15,1.17 0.35,2.07c0.47,2.74 1.62,6.69 3.53,12.33c7.87,23.26 20.31,53.47 33.34,81.92l0,0.01c0.49,1.2 1.81,4.04 3.53,7.63c10.95,23.44 22.06,45.1 31.04,59.9c3.22,5.31 4.9,8.43 6.71,10.22c0.4,0.53 0.7,0.9 0.86,1c0.05,0.02 0.24,0.05 0.51,0.08c2.72,1.65 6.46,1.15 15.63,0.73c1.45,-0.06 3.65,-0.1 6.33,-0.12c5.26,0.08 10.94,0.14 17.12,0.18c5.52,0.03 10.83,0.09 16.05,0.17c20.76,0.4 42.98,1.06 50.5,1.67c2.2,0.18 8.39,0.65 13.75,1.04c1.27,0.09 2.47,0.2 3.59,0.31c3.21,0.42 5.29,0.86 5.92,1.31c-0.01,0.38 -0.12,1.05 -0.29,1.92c-0.28,0.99 -0.63,2.2 -1.03,3.49c-8.48,27.55 -27.44,93.82 -27.44,95.92c0,0.2 0.04,0.38 0.09,0.57c-0.03,0.14 -0.09,0.38 -0.09,0.43c0,0.26 0.39,0.61 1.16,1.07c1.97,1.66 6.88,3.65 17.84,7.55c18.22,6.47 41.2,15.04 46.69,17.38c0.19,0.1 0.39,0.2 0.56,0.3c1.22,0.72 2.1,1.56 2.97,3.11c0.31,0.62 0.58,1.26 0.78,1.91c0.64,2.07 2.07,6.12 3.2,9.01c0.12,0.33 0.23,0.61 0.34,0.9c0.68,2.29 1.04,3.84 1.1,5.02c-0.06,0.72 -0.26,1.41 -0.59,2.23c-1.06,2.55 -1.86,2.97 -6.87,3.59c-3.13,0.39 -6.45,1.26 -9.68,2.44c-2.08,0.67 -4.07,1.54 -6,2.6c-5.39,2.74 -9.89,6.19 -11.84,9.48c-1.43,1.23 -2.61,2.09 -3.23,2.29c-0.81,-0.88 -2.09,-2.55 -3.43,-4.52c-1.59,-2.35 -5.42,-6.87 -9.23,-10.95c-0.5,-0.55 -1.01,-1.09 -1.51,-1.61c-0.29,-0.3 -0.59,-0.63 -0.87,-0.92c-6.98,-7.14 -8.5,-8.26 -11.45,-8.3c-0.01,0 -0.04,0 -0.05,0c-0.02,0 -0.04,0 -0.05,0c-0.02,0 -0.03,0 -0.04,0c-0.04,0 -0.08,0 -0.12,0c-0.02,0 -0.03,0 -0.05,0c-0.07,0 -0.14,0.01 -0.21,0.01c-4.04,0.14 -6.31,2.55 -7.12,7.59c-0.3,1.81 -1.11,3.83 -1.93,4.91c-0.29,0.22 -0.56,0.52 -0.83,0.9c-1.86,2.06 -2.95,6.26 -3.32,12.02c-0.13,1.33 -0.22,2.68 -0.22,4.02c0,1.8 0.09,3.77 0.22,5.81c0.62,12.87 3.47,29.74 8.38,47.24c1.39,4.95 3.15,11.32 3.93,14.15c2.24,8.25 6.28,19.38 10.86,30.48c1.29,3.61 3.79,9.29 6.77,15.48c3.62,7.81 7.23,14.86 10.3,19.89c9.24,15.12 16.72,23.36 24.21,26.67c5.08,2.25 8.28,1.88 11.5,-1.34l2.11,-2.11l6.61,2.16c0.16,0.05 0.36,0.11 0.52,0.16c2.37,0.94 4.87,1.64 7.99,2.14c1.52,0.35 2.97,0.66 4.1,0.85c7.65,1.26 42.35,1.23 58,-0.04c6.6,-0.54 17.48,-1.27 24.18,-1.64l12.18,-0.65l-0.56,4.17c-0.32,2.34 -0.06,4.17 0.68,5.49c0.85,1.64 2.44,2.48 4.72,2.51c2.22,0.08 5.04,-0.56 8.42,-2.02l4.98,-2.14l3.26,3.56c0.59,0.85 1.21,1.49 1.89,1.94c1.08,1.05 1.96,1.79 2.21,1.79c1.23,0 5.01,-2.22 7.25,-4.25l1.13,-1.03c0.46,-0.3 0.81,-0.47 1.11,-0.53c0.19,0.03 0.38,0.09 0.58,0.18l2.53,2.53c3.68,3.68 4.89,3.53 12.44,-1.56l4.97,-3.34l0.66,0.73l2.71,3.26c4.94,5.94 8,5.6 15.38,-1.7l4.4,-4.36c0.76,-0.58 1.39,-0.97 1.92,-1.2l4.21,1.2c2.4,0.68 4.19,1.14 5.69,1.42l3.48,1.03l2.41,-1.25c1.07,-0.36 2.22,-0.89 3.66,-1.63l5.28,-2.67l5.62,5.48c0.14,0.14 0.27,0.25 0.41,0.39c1.19,1.2 2.34,2.2 3.45,3.03c6.05,4.77 9.61,4.17 11.39,-1.79c0.19,-0.62 0.34,-1.07 0.51,-1.59c0.42,-1.16 0.81,-2.03 1.04,-2.28c0.31,0.11 3.29,1.8 6.94,3.93c3.76,2.2 7.49,4 8.28,4c1.93,0 5.09,-2.96 5.09,-4.76c0,-0.01 0.01,-0.02 0.01,-0.03c0.43,-0.5 0.89,-0.8 1.3,-0.83c0.14,0.04 0.27,0.07 0.44,0.14c0.97,0.41 4.13,0.96 7.04,1.23c5.18,0.49 5.32,0.44 6.47,-2.63c0.41,-1.08 0.73,-1.79 1.19,-2.25c0.05,-0.04 0.09,-0.06 0.14,-0.09c0.56,-0.31 1.37,-0.54 2.52,-0.72c0.14,-0.01 0.27,-0.03 0.43,-0.03c0,0 0,0 0.01,0c0.38,-0.02 0.8,-0.03 1.27,-0.03c0.01,0 0.02,0 0.03,0c0.19,0 0.34,0 0.54,0c0.35,0 0.65,-0.03 0.97,-0.05c0.15,0 0.32,-0.01 0.46,-0.02c4.59,-0.32 7.18,-2.21 7.19,-5.34c0,-1.29 0.11,-1.79 6.89,-2l8.39,0.23c8.92,0.23 19.96,-0.03 31.62,-0.67c15.09,-0.42 25.92,-1.5 45.09,-4.09l11.57,-1.57l1.91,-0.24l0.2,0.17l2.32,2.56c2.43,2.66 5.11,4.27 8.04,4.84c0.04,0.01 0.08,0.01 0.12,0.02c2.77,0.51 5.75,0.09 8.97,-1.25c3.53,-1.48 7.99,-5.6 12.62,-11.31c2.84,-3.4 5.62,-7.33 8.32,-11.73c3.36,-5.36 6.57,-11.26 9.31,-17.3c14.22,-31.3 23.43,-71.54 24.79,-100.03c0.41,-5 0.57,-8.79 0.32,-9.63c-0.06,-0.17 -0.13,-0.64 -0.21,-1.24c-0.37,-11.35 -2.44,-19.7 -6.5,-23.04c-1.09,-0.9 -2.67,-3.01 -3.79,-4.99c-0.07,-0.98 -0.73,-2.03 -1.67,-2.94c-0.88,-1.29 -1.74,-1.79 -3.25,-2.04c-0.42,-0.14 -0.84,-0.25 -1.25,-0.3c-0.07,-0.01 -0.13,-0.01 -0.19,-0.02c-0.1,-0.01 -0.2,-0.02 -0.3,-0.02c-0.01,0 -0.03,0 -0.04,0c-0.03,0 -0.06,0 -0.09,0c-0.41,0 -0.83,0.06 -1.26,0.17c-1.75,0.17 -2.9,1.02 -5.04,3.29c-0.63,0.67 -1.28,1.26 -1.9,1.75c-0.54,0.39 -1.06,0.75 -1.53,1.03c-0.53,0.28 -0.95,0.4 -1.2,0.3c-1.08,-0.41 -2.56,0.37 -4.29,2.16c-1.16,1.1 -2.42,2.74 -3.83,5.01c-1.75,2.68 -3.64,6.03 -5.58,9.98c-2.66,5.43 -4.65,9.41 -5.43,10.9c-0.3,0.49 -0.58,0.95 -0.74,1.16c-0.54,-0.26 -3.3,-2.79 -6.53,-5.99c-11.32,-11.26 -22.91,-19.16 -30.88,-21.08c-1.8,-0.43 -3.24,-2.12 -5.05,-5.89c-1.4,-2.91 -5.95,-12.04 -10.13,-20.29c-14.15,-27.98 -22.31,-53.33 -24.3,-75.5c-0.33,-3.58 -0.82,-8.42 -1.11,-10.76c-0.11,-0.91 -0.18,-1.63 -0.15,-2.28c0.14,-0.95 0.4,-1.76 0.75,-2.54c0.94,-1.59 2.89,-3.66 6.71,-7.68c4.31,-4.53 9.39,-10.27 11.29,-12.74c1.9,-2.48 3.71,-4.73 4.02,-5c1.89,-1.68 6.59,-9.18 11.21,-17.37c2.34,-3.94 4.4,-7.8 6.16,-11.51c1.95,-3.86 3.54,-7.29 4.38,-9.62c2.47,-6.83 4.35,-18.91 4.15,-26.66c-0.39,-14.53 -2.66,-24.07 -11.91,-49.84c-8.97,-25.04 -11.54,-34.11 -17.11,-60.5c-4.16,-19.73 -7.18,-29.67 -13.65,-45l-4.85,-11.49c-0.14,-1.45 -0.25,-3.29 -0.31,-5.68l-0.03,-1.42c-0.03,-2 -0.06,-4.2 -0.06,-6.92c0,-4.94 -0.1,-10.38 -0.29,-16.02c-0.11,-5.27 -0.27,-10.13 -0.5,-14.81c-1.46,-36.59 -5.78,-65.74 -15.17,-104.31c-13.55,-55.64 -39.57,-114.03 -64.98,-145.81c-5.06,-6.34 -9.03,-10.23 -12.16,-11.85c-0.91,-0.63 -1.65,-0.96 -2.3,-1.04zm-225.78,546.51l8.09,16.16l-15.16,61.62l-32.32,-16.16l39.39,-61.62z" fill="#000000" id="path2423" stroke-width="1" transform="translate(-53.6662, -44.666) scale(0.264583)"/>
    <path d="m68.51,905.28c-0.23,0.06 -0.42,0.1 -0.58,0.1c0,0 0,0 0.01,0c0.15,0 0.34,-0.04 0.57,-0.1z" fill="#ffd73e" id="path2700" stroke-width="1" transform="translate(-53.6662, -44.666) scale(0.264583)"/>
    <path d="m110.85,904.49c-0.66,0.38 -1.28,0.65 -1.88,0.82c0.6,-0.17 1.22,-0.44 1.88,-0.82z" fill="#ffd73e" id="path2698" stroke-width="1" transform="translate(-53.6662, -44.666) scale(0.264583)"/>
    <path d="m87.49,904.08c-0.83,0.39 -1.54,0.63 -2.18,0.71c0.64,-0.08 1.35,-0.32 2.18,-0.71z" fill="#ffd73e" id="path2696" stroke-width="1" transform="translate(-53.6662, -44.666) scale(0.264583)"/>
    <path d="m82.41,903.94c0.38,0.28 0.75,0.49 1.13,0.63c-0.38,-0.14 -0.75,-0.35 -1.13,-0.63z" fill="#ffd73e" id="path2694" stroke-width="1" transform="translate(-53.6662, -44.666) scale(0.264583)"/>
    <path d="m103.09,903.3c0.57,0.54 1.13,0.99 1.68,1.34c-0.55,-0.35 -1.11,-0.8 -1.68,-1.34z" fill="#ffd73e" id="path2692" stroke-width="1" transform="translate(-53.6662, -44.666) scale(0.264583)"/>
    <path d="m184.96,903.3c0.19,0.05 0.33,0.08 0.43,0.08c0.12,0 0.25,-0.01 0.38,-0.04c-0.13,0.03 -0.26,0.04 -0.38,0.04c-0.1,0 -0.24,-0.03 -0.43,-0.08z" fill="#ffd73e" id="path2690" stroke-width="1" transform="translate(-53.6662, -44.666) scale(0.264583)"/>
    <path d="m187.85,902.35c-0.56,0.41 -1.15,0.73 -1.69,0.9c0.54,-0.17 1.13,-0.49 1.69,-0.9z" fill="#ffd73e" id="path2688" stroke-width="1" transform="translate(-53.6662, -44.666) scale(0.264583)"/>
    <path d="m48.96,902.17c-0.63,0.08 -1.22,0.1 -1.78,0.08c-0.28,-0.01 -0.56,-0.02 -0.82,-0.05c0.26,0.03 0.54,0.04 0.82,0.05c0.56,0.02 1.15,0 1.78,-0.08z" fill="#ffd73e" id="path2686" stroke-width="1" transform="translate(-53.6662, -44.666) scale(0.264583)"/>
    <path d="m52.03,901.53c-0.73,0.22 -1.44,0.38 -2.1,0.5c0.66,-0.12 1.37,-0.28 2.1,-0.5z" fill="#ffd73e" id="path2684" stroke-width="1" transform="translate(-53.6662, -44.666) scale(0.264583)"/>
    <path d="m54.36,900.74c-0.81,0.31 -1.59,0.58 -2.33,0.79c0.74,-0.21 1.52,-0.48 2.33,-0.79z" fill="#ffd73e" id="path2682" stroke-width="1" transform="translate(-53.6662, -44.666) scale(0.264583)"/>
    <path d="m76.93,899.74c-0.18,0.09 -0.39,0.21 -0.61,0.35l-1.14,1.04c-1.12,1.01 -2.62,2.08 -4,2.89c1.38,-0.81 2.89,-1.87 4.01,-2.89l1.13,-1.03c0.23,-0.15 0.43,-0.27 0.61,-0.36z" fill="#ffd73e" id="path2680" stroke-width="1" transform="translate(-53.6662, -44.666) scale(0.264583)"/>
    <path d="m77.42,899.57c-0.15,0.03 -0.31,0.09 -0.49,0.17c0.18,-0.08 0.35,-0.14 0.5,-0.17c0.19,0.03 0.38,0.09 0.58,0.18l0,0c-0.2,-0.09 -0.39,-0.15 -0.59,-0.18z" fill="#ffd73e" id="path2678" stroke-width="1" transform="translate(-53.6662, -44.666) scale(0.264583)"/>
    <path d="m203.68,899.26c-0.36,0.08 -0.81,0.11 -1.38,0.1c0.57,0.01 1.02,-0.02 1.38,-0.1z" fill="#ffd73e" id="path2676" stroke-width="1" transform="translate(-53.6662, -44.666) scale(0.264583)"/>
    <path d="m204.3,899c-0.18,0.11 -0.38,0.2 -0.62,0.26c0.24,-0.06 0.44,-0.14 0.62,-0.26z" fill="#ffd73e" id="path2674" stroke-width="1" transform="translate(-53.6662, -44.666) scale(0.264583)"/>
    <path d="m204.77,898.57c-0.07,0.09 -0.14,0.17 -0.22,0.24c0.08,-0.07 0.15,-0.15 0.22,-0.24z" fill="#ffd73e" id="path2672" stroke-width="1" transform="translate(-53.6662, -44.666) scale(0.264583)"/>
    <path d="m190.81,898.26c-0.11,0.1 -0.22,0.21 -0.33,0.33c0,0.01 0,0.02 0,0.03c0,0.11 -0.01,0.23 -0.03,0.35c0.02,-0.12 0.03,-0.24 0.03,-0.35c0,-0.01 0.01,-0.02 0.01,-0.03c0.1,-0.12 0.21,-0.23 0.32,-0.33z" fill="#ffd73e" id="path2670" stroke-width="1" transform="translate(-53.6662, -44.666) scale(0.264583)"/>
    <path d="m193.33,898.23c1.38,0.33 3.6,0.67 5.72,0.88c-2.12,-0.21 -4.34,-0.55 -5.72,-0.88z" fill="#ffd73e" id="path2668" stroke-width="1" transform="translate(-53.6662, -44.666) scale(0.264583)"/>
    <path d="m60.58,898.09l-4.98,2.14c-0.43,0.18 -0.84,0.35 -1.24,0.51c0.4,-0.16 0.82,-0.32 1.24,-0.51l4.98,-2.14z" fill="#ffd73e" id="path2666" stroke-width="1" transform="translate(-53.6662, -44.666) scale(0.264583)"/>
    <path d="m97.94,897.38l-4.96,3.34c-0.94,0.64 -1.79,1.2 -2.55,1.68c0.76,-0.48 1.61,-1.04 2.55,-1.68l4.97,-3.34l-0.01,0z" fill="#ffd73e" id="path2664" stroke-width="1" transform="translate(-53.6662, -44.666) scale(0.264583)"/>
    <path d="m168.26,900.37c-0.37,0.99 -0.81,1.8 -1.32,2.41c0.51,-0.61 0.95,-1.42 1.32,-2.41z" fill="#ffd73e" id="path2662" stroke-width="1" transform="translate(-53.6662, -44.666) scale(0.264583)"/>
    <path d="m169.72,896.25c-0.18,0.39 -0.38,0.9 -0.59,1.48c-0.17,0.52 -0.33,0.97 -0.51,1.59c-0.11,0.37 -0.23,0.72 -0.36,1.05c0.13,-0.33 0.25,-0.68 0.36,-1.05c0.19,-0.62 0.34,-1.07 0.51,-1.59c0.21,-0.58 0.41,-1.09 0.59,-1.48z" fill="#ffd73e" id="path2660" stroke-width="1" transform="translate(-53.6662, -44.666) scale(0.264583)"/>
    <path d="m170.17,895.45c-0.06,0.06 -0.13,0.16 -0.2,0.3c0.07,-0.14 0.14,-0.24 0.2,-0.3c0,0 0,0 0,0z" fill="#ffd73e" id="path2658" stroke-width="1" transform="translate(-53.6662, -44.666) scale(0.264583)"/>
    <path d="m206.31,895.14c-0.18,0.37 -0.37,0.82 -0.57,1.36c-0.14,0.39 -0.27,0.72 -0.4,1.02c0.13,-0.3 0.26,-0.63 0.4,-1.02c0.21,-0.54 0.39,-0.99 0.57,-1.36z" fill="#ffd73e" id="path2656" stroke-width="1" transform="translate(-53.6662, -44.666) scale(0.264583)"/>
    <path d="m206.93,894.25c-0.23,0.23 -0.43,0.52 -0.62,0.89c0.19,-0.37 0.39,-0.66 0.62,-0.89c0,0 0,0 0,0z" fill="#ffd73e" id="path2654" stroke-width="1" transform="translate(-53.6662, -44.666) scale(0.264583)"/>
    <path d="m209.59,893.44c-0.87,0.13 -1.54,0.29 -2.06,0.5c0.52,-0.2 1.19,-0.37 2.06,-0.5z" fill="#ffd73e" id="path2652" stroke-width="1" transform="translate(-53.6662, -44.666) scale(0.264583)"/>
    <path d="m211.28,893.39c-0.46,0 -0.87,0 -1.25,0.02c-0.01,0 -0.01,0 -0.01,0c-0.16,0 -0.29,0.02 -0.43,0.03c0.14,-0.01 0.27,-0.03 0.43,-0.03c0,0 0,0 0.01,0c0.37,-0.02 0.79,-0.02 1.25,-0.02z" fill="#ffd73e" id="path2650" stroke-width="1" transform="translate(-53.6662, -44.666) scale(0.264583)"/>
    <path d="m214.93,893.12c-0.51,0.09 -1.05,0.15 -1.63,0.19c-0.14,0.01 -0.31,0.02 -0.46,0.02c0.15,0 0.32,-0.01 0.46,-0.02c0.58,-0.04 1.12,-0.1 1.63,-0.19z" fill="#ffd73e" id="path2648" stroke-width="1" transform="translate(-53.6662, -44.666) scale(0.264583)"/>
    <path d="m115.36,900.96c-0.86,0.8 -1.65,1.5 -2.4,2.09c0.75,-0.59 1.54,-1.29 2.4,-2.09z" fill="#ffd73e" id="path2646" stroke-width="1" transform="translate(-53.6662, -44.666) scale(0.264583)"/>
    <path d="m122.15,894.58c-0.32,0.2 -0.67,0.44 -1.05,0.73l-4.4,4.36c-0.47,0.45 -0.91,0.88 -1.34,1.29c0.43,-0.41 0.88,-0.84 1.34,-1.29l4.4,-4.36c0.38,-0.29 0.73,-0.53 1.05,-0.73z" fill="#ffd73e" id="path2644" stroke-width="1" transform="translate(-53.6662, -44.666) scale(0.264583)"/>
    <path d="m147.75,892.21l-5.28,2.67c-1.44,0.73 -2.59,1.27 -3.66,1.63l-2.41,1.24l-3.48,-1.02c-1.51,-0.28 -3.29,-0.74 -5.7,-1.42l-4.2,-1.2c-0.27,0.11 -0.56,0.27 -0.87,0.47c0.31,-0.2 0.61,-0.35 0.87,-0.47l4.21,1.2c2.4,0.68 4.19,1.14 5.69,1.42l3.48,1.03l2.41,-1.25c1.07,-0.36 2.22,-0.89 3.66,-1.62l5.28,-2.68z" fill="#ffd73e" id="path2642" stroke-width="1" transform="translate(-53.6662, -44.666) scale(0.264583)"/>
    <path d="m219.04,891.34c-0.4,0.37 -0.89,0.69 -1.45,0.97c0.56,-0.28 1.05,-0.6 1.45,-0.97z" fill="#ffd73e" id="path2640" stroke-width="1" transform="translate(-53.6662, -44.666) scale(0.264583)"/>
    <path d="m-81.36,891.74c0.53,0.12 1.04,0.19 1.53,0.23c-0.49,-0.04 -1,-0.11 -1.53,-0.23z" fill="#ffd73e" id="path2638" stroke-width="1" transform="translate(-53.6662, -44.666) scale(0.264583)"/>
    <path d="m-82.83,891.34c0.51,0.16 1,0.3 1.47,0.4c-0.47,-0.1 -0.96,-0.24 -1.47,-0.4z" fill="#ffd73e" id="path2636" stroke-width="1" transform="translate(-53.6662, -44.666) scale(0.264583)"/>
    <path d="m-50.28,892.63c1.36,0.14 3.09,0.25 5.12,0.35c-2.03,-0.1 -3.76,-0.21 -5.12,-0.35z" fill="#ffd73e" id="path2634" stroke-width="1" transform="translate(-53.6662, -44.666) scale(0.264583)"/>
    <path d="m-57.94,891.22c0.59,0.12 1.18,0.24 1.82,0.34c1.52,0.35 2.97,0.66 4.1,0.85c0.48,0.08 1.06,0.15 1.74,0.22c-0.68,-0.07 -1.26,-0.14 -1.74,-0.22c-1.13,-0.19 -2.58,-0.5 -4.1,-0.85c-0.64,-0.1 -1.23,-0.22 -1.82,-0.34z" fill="#ffd73e" id="path2632" stroke-width="1" transform="translate(-53.6662, -44.666) scale(0.264583)"/>
    <path d="m18.03,891.48c-4.38,0.3 -8.75,0.62 -12.05,0.89c-1.95,0.16 -4.21,0.3 -6.67,0.42c2.46,-0.12 4.72,-0.26 6.67,-0.42c3.3,-0.27 7.67,-0.59 12.05,-0.89z" fill="#ffd73e" id="path2630" stroke-width="1" transform="translate(-53.6662, -44.666) scale(0.264583)"/>
    <path d="m42.33,890.08l-12.17,0.65c-3.35,0.18 -7.74,0.46 -12.13,0.75c4.39,-0.29 8.78,-0.56 12.13,-0.75l12.17,-0.65z" fill="#ffd73e" id="path2628" stroke-width="1" transform="translate(-53.6662, -44.666) scale(0.264583)"/>
    <path d="m-87.66,889.08c0.94,0.57 1.87,1.06 2.81,1.47c-0.94,-0.41 -1.87,-0.9 -2.81,-1.47z" fill="#ffd73e" id="path2626" stroke-width="1" transform="translate(-53.6662, -44.666) scale(0.264583)"/>
    <path d="m220.5,887.52c-0.01,0.14 -0.02,0.29 -0.02,0.45c0,0.2 0,0.39 -0.03,0.58c0.03,-0.19 0.04,-0.38 0.04,-0.58c0,-0.16 0,-0.31 0.01,-0.45z" fill="#ffd73e" id="path2624" stroke-width="1" transform="translate(-53.6662, -44.666) scale(0.264583)"/>
    <path d="m-77.06,891.64c-0.44,0.14 -0.88,0.24 -1.34,0.29c0.46,-0.05 0.9,-0.15 1.34,-0.29z" fill="#ffd73e" id="path2622" stroke-width="1" transform="translate(-53.6662, -44.666) scale(0.264583)"/>
    <path d="m-73.96,889.78c-1,0.9 -2.02,1.51 -3.1,1.86c1.08,-0.35 2.1,-0.96 3.1,-1.86z" fill="#ffd73e" id="path2620" stroke-width="1" transform="translate(-53.6662, -44.666) scale(0.264583)"/>
    <path d="m-71.24,887.1l-2.11,2.11c-0.2,0.2 -0.4,0.39 -0.61,0.57c0.21,-0.18 0.41,-0.36 0.61,-0.56l2.11,-2.12l6.61,2.16c0.16,0.05 0.36,0.11 0.52,0.16c0,0 0,0 0,0c-0.16,-0.06 -0.36,-0.11 -0.52,-0.16l-6.61,-2.16z" fill="#ffd73e" id="path2618" stroke-width="1" transform="translate(-53.6662, -44.666) scale(0.264583)"/>
    <path d="m336.64,887.22c1.38,0.25 2.82,0.28 4.31,0.07c-1.49,0.21 -2.93,0.18 -4.31,-0.07z" fill="#ffd73e" id="path2616" stroke-width="1" transform="translate(-53.6662, -44.666) scale(0.264583)"/>
    <path d="m335.43,886.94c0.36,0.1 0.72,0.19 1.09,0.26c0.04,0.01 0.08,0.01 0.12,0.02c-0.04,-0.01 -0.08,-0.01 -0.12,-0.02c-0.37,-0.07 -0.73,-0.16 -1.09,-0.26z" fill="#ffd73e" id="path2614" stroke-width="1" transform="translate(-53.6662, -44.666) scale(0.264583)"/>
    <path d="m220.88,886.83c-0.06,0.04 -0.12,0.1 -0.16,0.15c0.04,-0.05 0.1,-0.11 0.16,-0.15z" fill="#ffd73e" id="path2612" stroke-width="1" transform="translate(-53.6662, -44.666) scale(0.264583)"/>
    <path d="m223.44,886.19c-1.45,0.15 -2.18,0.35 -2.56,0.64c0.38,-0.29 1.12,-0.49 2.56,-0.64z" fill="#ffd73e" id="path2610" stroke-width="1" transform="translate(-53.6662, -44.666) scale(0.264583)"/>
    <path d="m227.38,885.97c-0.85,0.03 -1.59,0.06 -2.24,0.1c0.65,-0.04 1.4,-0.07 2.24,-0.1l8.39,0.23c4.46,0.11 9.45,0.11 14.78,-0.01c-5.33,0.12 -10.32,0.12 -14.78,0l-8.39,-0.22z" fill="#ffd73e" id="path2608" stroke-width="1" transform="translate(-53.6662, -44.666) scale(0.264583)"/>
    <path d="m345.61,885.97c-0.8,0.33 -1.59,0.61 -2.37,0.83c0.78,-0.22 1.57,-0.5 2.37,-0.83z" fill="#ffd73e" id="path2606" stroke-width="1" transform="translate(-53.6662, -44.666) scale(0.264583)"/>
    <path d="m272.87,885.34c-1.78,0.08 -3.6,0.14 -5.49,0.19c-2.91,0.16 -5.79,0.3 -8.6,0.41c2.81,-0.11 5.69,-0.25 8.61,-0.4c1.88,-0.06 3.7,-0.12 5.48,-0.2z" fill="#ffd73e" id="path2604" stroke-width="1" transform="translate(-53.6662, -44.666) scale(0.264583)"/>
    <path d="m330.35,884.16c0.96,0.8 1.95,1.45 2.98,1.96c-1.03,-0.51 -2.02,-1.16 -2.98,-1.96z" fill="#ffd73e" id="path2602" stroke-width="1" transform="translate(-53.6662, -44.666) scale(0.264583)"/>
    <path d="m-94.83,883.21c0.49,0.5 0.98,0.98 1.46,1.43c-0.48,-0.45 -0.97,-0.93 -1.46,-1.43z" fill="#ffd73e" id="path2600" stroke-width="1" transform="translate(-53.6662, -44.666) scale(0.264583)"/>
    <path d="m299.47,883.11c-7.9,0.95 -14.49,1.57 -21.37,1.97c6.88,-0.4 13.47,-1.02 21.37,-1.97z" fill="#ffd73e" id="path2598" stroke-width="1" transform="translate(-53.6662, -44.666) scale(0.264583)"/>
    <path d="m351.51,881.9c-1.07,0.97 -2.1,1.8 -3.09,2.48c0.99,-0.68 2.02,-1.51 3.09,-2.48z" fill="#ffd73e" id="path2596" stroke-width="1" transform="translate(-53.6662, -44.666) scale(0.264583)"/>
    <path d="m325.96,879.63l-1.91,0.24l-11.57,1.57c-2.39,0.32 -4.66,0.62 -6.82,0.9c2.16,-0.28 4.43,-0.58 6.82,-0.9l11.57,-1.57l1.91,-0.24z" fill="#ffd73e" id="path2594" stroke-width="1" transform="translate(-53.6662, -44.666) scale(0.264583)"/>
    <path d="m360.35,872.01c-0.7,0.92 -1.41,1.8 -2.12,2.65c-0.58,0.72 -1.15,1.4 -1.73,2.07c0.58,-0.67 1.15,-1.35 1.73,-2.07c0.71,-0.85 1.42,-1.73 2.12,-2.65z" fill="#ffd73e" id="path2592" stroke-width="1" transform="translate(-53.6662, -44.666) scale(0.264583)"/>
    <path d="m398.2,768.85c-0.64,4.13 -1.39,8.37 -2.24,12.67c0.85,-4.3 1.6,-8.54 2.24,-12.67z" fill="#ffd73e" id="path2590" stroke-width="1" transform="translate(-53.6662, -44.666) scale(0.264583)"/>
    <path d="m400.76,734.73c0.08,0.6 0.15,1.07 0.21,1.24c0.12,0.42 0.15,1.58 0.09,3.25c0.06,-1.67 0.04,-2.83 -0.09,-3.25c-0.06,-0.17 -0.13,-0.64 -0.21,-1.24z" fill="#ffd73e" id="path2588" stroke-width="1" transform="translate(-53.6662, -44.666) scale(0.264583)"/>
    <path d="m-109.78,726.88c0.26,0.31 0.49,0.58 0.69,0.8c0,0 0,0 0,0c-0.2,-0.22 -0.43,-0.49 -0.69,-0.8z" fill="#ffd73e" id="path2586" stroke-width="1" transform="translate(-53.6662, -44.666) scale(0.264583)"/>
    <path d="m399.66,723.58c0.17,0.96 0.33,1.96 0.47,3.01c-0.14,-1.05 -0.3,-2.05 -0.47,-3.01z" fill="#ffd73e" id="path2584" stroke-width="1" transform="translate(-53.6662, -44.666) scale(0.264583)"/>
    <path d="m-113.42,721.94c0.31,0.41 0.67,0.88 0.9,1.22c0.67,0.98 1.33,1.89 1.91,2.67c-0.58,-0.78 -1.24,-1.69 -1.91,-2.67c-0.22,-0.34 -0.59,-0.81 -0.9,-1.22z" fill="#ffd73e" id="path2582" stroke-width="1" transform="translate(-53.6662, -44.666) scale(0.264583)"/>
    <path d="m396.94,715.1c0.38,0.72 0.74,1.5 1.06,2.36c-0.32,-0.86 -0.68,-1.64 -1.06,-2.36z" fill="#ffd73e" id="path2580" stroke-width="1" transform="translate(-53.6662, -44.666) scale(0.264583)"/>
    <path d="m395,712.38c0.47,0.49 0.92,1.06 1.33,1.7c-0.41,-0.64 -0.86,-1.21 -1.33,-1.7z" fill="#ffd73e" id="path2578" stroke-width="1" transform="translate(-53.6662, -44.666) scale(0.264583)"/>
    <path d="m312.6,707.92c0.22,0.29 0.44,0.54 0.66,0.77c-0.22,-0.23 -0.44,-0.48 -0.66,-0.77z" fill="#ffd73e" id="path2576" stroke-width="1" transform="translate(-53.6662, -44.666) scale(0.264583)"/>
    <path d="m-126.5,707.28c0.71,0.71 1.5,1.51 2.37,2.4c0.28,0.29 0.58,0.62 0.86,0.92c0.51,0.52 1.01,1.06 1.52,1.61c1.9,2.04 3.81,4.19 5.45,6.12c-1.64,-1.93 -3.55,-4.08 -5.45,-6.12c-0.5,-0.55 -1.01,-1.09 -1.51,-1.61c-0.29,-0.3 -0.59,-0.63 -0.87,-0.92c-0.87,-0.89 -1.66,-1.69 -2.37,-2.4z" fill="#ffd73e" id="path2574" stroke-width="1" transform="translate(-53.6662, -44.666) scale(0.264583)"/>
    <path d="m390.33,706.04c0.07,0.22 0.12,0.44 0.14,0.66c-0.02,-0.22 -0.07,-0.44 -0.14,-0.66z" fill="#ffd73e" id="path2572" stroke-width="1" transform="translate(-53.6662, -44.666) scale(0.264583)"/>
    <path d="m-78.41,685.67c0.26,0.21 0.52,0.43 0.76,0.68c-0.24,-0.25 -0.49,-0.47 -0.76,-0.68z" fill="#ffd73e" id="path2570" stroke-width="1" transform="translate(-53.6662, -44.666) scale(0.264583)"/>
    <path d="m-112.31,672.54c9.6,3.5 19.01,7 25.43,9.47c-6.42,-2.47 -15.83,-5.97 -25.43,-9.47z" fill="#ffd73e" id="path2568" stroke-width="1" transform="translate(-53.6662, -44.666) scale(0.264583)"/>
    <path d="m-138.81,662.81c1.42,0.59 3.12,1.26 5.16,2.02c-2.04,-0.76 -3.74,-1.43 -5.16,-2.02z" fill="#ffd73e" id="path2566" stroke-width="1" transform="translate(-53.6662, -44.666) scale(0.264583)"/>
    <path d="m-142.28,661.2c0.91,0.48 2.05,1.01 3.47,1.61c-1.42,-0.6 -2.56,-1.13 -3.47,-1.61z" fill="#ffd73e" id="path2564" stroke-width="1" transform="translate(-53.6662, -44.666) scale(0.264583)"/>
    <path d="m289.37,659.87c1.14,2.82 2.32,5.67 3.6,8.55c-1.28,-2.88 -2.46,-5.73 -3.6,-8.55z" fill="#ffd73e" id="path2562" stroke-width="1" transform="translate(-53.6662, -44.666) scale(0.264583)"/>
    <path d="m-145.23,659.26c0.1,0.09 0.22,0.18 0.37,0.29c-0.15,-0.11 -0.27,-0.2 -0.37,-0.29z" fill="#ffd73e" id="path2560" stroke-width="1" transform="translate(-53.6662, -44.666) scale(0.264583)"/>
    <path d="m275.88,592.18c-0.15,0.21 -0.28,0.42 -0.4,0.62c-0.18,0.39 -0.33,0.79 -0.46,1.2c0.13,-0.41 0.28,-0.81 0.46,-1.2c0.12,-0.2 0.25,-0.41 0.4,-0.62z" fill="#ffd73e" id="path2558" stroke-width="1" transform="translate(-53.6662, -44.666) scale(0.264583)"/>
    <path d="m285.5,581.56c-1.11,1.22 -2.23,2.43 -3.31,3.56c-0.96,1 -1.79,1.89 -2.53,2.67c0.74,-0.78 1.58,-1.67 2.53,-2.67c1.08,-1.13 2.2,-2.34 3.31,-3.56z" fill="#ffd73e" id="path2556" stroke-width="1" transform="translate(-53.6662, -44.666) scale(0.264583)"/>
    <path d="m296.08,569.05c-0.72,0.91 -1.65,2.09 -2.6,3.33c-0.48,0.62 -1.15,1.44 -1.96,2.39c0.81,-0.95 1.48,-1.77 1.96,-2.39c0.95,-1.24 1.88,-2.42 2.6,-3.33z" fill="#ffd73e" id="path2552" stroke-width="1" transform="translate(-53.6662, -44.666) scale(0.264583)"/>
    <path d="m298.33,566.48c-0.32,0.39 -0.6,0.69 -0.83,0.9c-0.16,0.13 -0.69,0.76 -1.42,1.67c0.73,-0.9 1.26,-1.54 1.42,-1.67c0.23,-0.21 0.51,-0.51 0.83,-0.9z" fill="#ffd73e" id="path2550" stroke-width="1" transform="translate(-53.6662, -44.666) scale(0.264583)"/>
    <path d="m300.66,563.31c-0.9,1.33 -1.69,2.41 -2.33,3.17c0.64,-0.76 1.43,-1.84 2.33,-3.17z" fill="#ffd73e" id="path2548" stroke-width="1" transform="translate(-53.6662, -44.666) scale(0.264583)"/>
    <path d="m-120.49,555.48c1.31,0.21 2.32,0.43 2.99,0.65c-0.67,-0.22 -1.68,-0.44 -2.99,-0.65z" fill="#ffd73e" id="path2546" stroke-width="1" transform="translate(-53.6662, -44.666) scale(0.264583)"/>
    <path d="m-148.16,553.35c3.46,0.15 6.26,0.31 8.14,0.46c-1.88,-0.15 -4.68,-0.31 -8.14,-0.46z" fill="#ffd73e" id="path2544" stroke-width="1" transform="translate(-53.6662, -44.666) scale(0.264583)"/>
    <path d="m-174.93,552.48c10.24,0.26 19.84,0.56 26.77,0.87c-6.93,-0.31 -16.53,-0.61 -26.77,-0.87z" fill="#ffd73e" id="path2542" stroke-width="1" transform="translate(-53.6662, -44.666) scale(0.264583)"/>
    <path d="m-227.31,551.83c-1.07,0.02 -1.98,0.05 -2.71,0.08c-2.29,0.1 -4.24,0.21 -5.93,0.29c1.69,-0.08 3.64,-0.18 5.93,-0.29c0.73,-0.03 1.64,-0.06 2.71,-0.08z" fill="#ffd73e" id="path2540" stroke-width="1" transform="translate(-53.6662, -44.666) scale(0.264583)"/>
    <path d="m-223.69,551.79c-1.34,0.01 -2.56,0.02 -3.62,0.04c1.06,-0.02 2.28,-0.03 3.62,-0.04c5.26,0.08 10.94,0.14 17.12,0.18c5.52,0.03 10.83,0.09 16.05,0.17c-5.22,-0.08 -10.53,-0.14 -16.05,-0.17c-6.18,-0.04 -11.86,-0.11 -17.12,-0.18z" fill="#ffd73e" id="path2538" stroke-width="1" transform="translate(-53.6662, -44.666) scale(0.264583)"/>
    <path d="m-246.5,550.76c0.15,0.17 0.26,0.29 0.34,0.34c0.05,0.03 0.24,0.05 0.51,0.08c0.17,0.1 0.34,0.2 0.52,0.29c-0.18,-0.09 -0.35,-0.19 -0.52,-0.29c-0.27,-0.03 -0.46,-0.06 -0.51,-0.09c-0.08,-0.04 -0.19,-0.16 -0.34,-0.33z" fill="#ffd73e" id="path2536" stroke-width="1" transform="translate(-53.6662, -44.666) scale(0.264583)"/>
    <path d="m-248.38,548.49c0.46,0.63 0.91,1.16 1.36,1.6c-0.45,-0.44 -0.9,-0.97 -1.36,-1.6z" fill="#ffd73e" id="path2534" stroke-width="1" transform="translate(-53.6662, -44.666) scale(0.264583)"/>
    <path d="m310.41,547.07c-0.55,0.97 -1.12,1.95 -1.71,2.94c-1.15,2.05 -2.31,4.05 -3.43,5.93c1.12,-1.88 2.28,-3.89 3.44,-5.93c0.58,-0.99 1.15,-1.97 1.7,-2.94z" fill="#ffd73e" id="path2532" stroke-width="1" transform="translate(-53.6662, -44.666) scale(0.264583)"/>
    <path d="m313.49,541.31c-0.95,1.89 -1.98,3.81 -3.08,5.76c1.1,-1.95 2.13,-3.87 3.08,-5.76z" fill="#ffd73e" id="path2530" stroke-width="1" transform="translate(-53.6662, -44.666) scale(0.264583)"/>
    <path d="m316.26,535.69c-0.44,0.9 -0.9,1.84 -1.39,2.81c-0.44,0.93 -0.9,1.87 -1.38,2.81c0.48,-0.94 0.94,-1.88 1.38,-2.81c0.49,-0.97 0.95,-1.91 1.39,-2.81z" fill="#ffd73e" id="path2528" stroke-width="1" transform="translate(-53.6662, -44.666) scale(0.264583)"/>
    <path d="m318.48,530.82c-0.59,1.42 -1.35,3.07 -2.22,4.87c0.87,-1.8 1.63,-3.45 2.22,-4.87z" fill="#ffd73e" id="path2526" stroke-width="1" transform="translate(-53.6662, -44.666) scale(0.264583)"/>
    <path d="m320.15,526.09c-0.29,1 -0.59,1.93 -0.9,2.79c-0.21,0.58 -0.47,1.23 -0.77,1.94c0.3,-0.71 0.56,-1.36 0.77,-1.94c0.31,-0.86 0.61,-1.79 0.9,-2.79z" fill="#ffd73e" id="path2524" stroke-width="1" transform="translate(-53.6662, -44.666) scale(0.264583)"/>
    <path d="m323.3,499.64c0.04,0.85 0.07,1.71 0.09,2.58c0.03,0.97 0.02,2.01 -0.01,3.09c0.03,-1.08 0.04,-2.12 0.02,-3.09c-0.03,-0.87 -0.06,-1.73 -0.1,-2.58z" fill="#ffd73e" id="path2522" stroke-width="1" transform="translate(-53.6662, -44.666) scale(0.264583)"/>
    <path d="m322.7,492.17c0.19,1.59 0.34,3.18 0.45,4.8c-0.11,-1.62 -0.26,-3.21 -0.45,-4.8z" fill="#ffd73e" id="path2520" stroke-width="1" transform="translate(-53.6662, -44.666) scale(0.264583)"/>
    <path d="m319.4,476.29c0.51,1.83 0.97,3.57 1.37,5.22c-0.4,-1.65 -0.86,-3.39 -1.37,-5.22z" fill="#ffd73e" id="path2512" stroke-width="1" transform="translate(-53.6662, -44.666) scale(0.264583)"/>
    <path d="m-59.91,432.31c-0.15,0.67 -0.31,1.17 -0.49,1.51c0.18,-0.34 0.34,-0.84 0.49,-1.51z" fill="#000000" id="path2504" stroke-width="1" transform="translate(-53.6662, -44.666) scale(0.264583)"/>
    <path d="m-311.07,419.06c2.68,6.81 5.56,13.85 8.57,20.99c-3.01,-7.14 -5.89,-14.18 -8.57,-20.99z" fill="#ffd73e" id="path2500" stroke-width="1" transform="translate(-53.6662, -44.666) scale(0.264583)"/>
    <path d="m292.86,384.91c0.5,2.19 1,4.5 1.52,6.97c0.7,3.3 1.35,6.32 1.97,9.15c-0.62,-2.83 -1.27,-5.85 -1.97,-9.15c-0.52,-2.47 -1.02,-4.78 -1.52,-6.97z" fill="#000000" id="path2492" stroke-width="1" transform="translate(-53.6662, -44.666) scale(0.264583)"/>
    <path d="m-100.68,346.93c6.34,2.53 12.61,5.01 18.38,7.21c-5.77,-2.2 -12.04,-4.68 -18.38,-7.21z" fill="#ffd73e" id="path2486" stroke-width="1" transform="translate(-53.6662, -44.666) scale(0.264583)"/>
    <path d="m275.7,332.9c0.05,0.95 0.11,1.77 0.18,2.49l4.85,11.49l-4.85,-11.49c-0.07,-0.72 -0.13,-1.54 -0.18,-2.49z" fill="#000000" id="path2484" stroke-width="1" transform="translate(-53.6662, -44.666) scale(0.264583)"/>
    <path d="m275.19,305.35c0.19,5.64 0.29,11.08 0.29,16.02c0,-4.94 -0.1,-10.38 -0.29,-16.02z" fill="#ffd73e" id="path2482" stroke-width="1" transform="translate(-53.6662, -44.666) scale(0.264583)"/>
    <path d="m182.44,276.23c0.21,0.86 0.41,1.62 0.61,2.3c0.02,0.05 0.03,0.09 0.04,0.14c-0.01,-0.05 -0.02,-0.09 -0.03,-0.14c-0.21,-0.67 -0.41,-1.44 -0.62,-2.3z" fill="#ffd73e" id="path2480" stroke-width="1" transform="translate(-53.6662, -44.666) scale(0.264583)"/>
    <path d="m-261.04,262.29c2.06,1.51 4.36,3.16 6.87,4.92c-2.51,-1.76 -4.81,-3.41 -6.87,-4.92z" fill="#ffd73e" id="path2478" stroke-width="1" transform="translate(-53.6662, -44.666) scale(0.264583)"/>
    <path d="m259.52,186.23c1.04,4.27 2.01,8.41 2.93,12.47c-0.92,-4.06 -1.89,-8.2 -2.93,-12.47z" fill="#ffd73e" id="path2476" stroke-width="1" transform="translate(-53.6662, -44.666) scale(0.264583)"/>
    <path d="m178.59,251.97c1.28,10.7 2.6,19.11 3.85,24.26c-1.25,-5.15 -2.57,-13.56 -3.85,-24.26z" fill="#ffd73e" id="path2474" stroke-width="1" transform="translate(-53.6662, -44.666) scale(0.264583)"/>
    <path d="m175.47,221c0.99,11.54 2.04,22.05 3.12,30.97c-1.08,-8.92 -2.13,-19.43 -3.12,-30.97z" fill="#ffd73e" id="path2472" stroke-width="1" transform="translate(-53.6662, -44.666) scale(0.264583)"/>
    <path d="m172,169.73c0.2,3.77 0.41,7.51 0.62,11.23c0.14,2.7 0.28,5.2 0.43,7.42c0.07,1.05 0.15,2.15 0.23,3.22c0.67,10.27 1.41,20.16 2.19,29.4c-0.78,-9.24 -1.52,-19.13 -2.19,-29.4c-0.07,-1.07 -0.16,-2.17 -0.23,-3.22c-0.15,-2.22 -0.29,-4.72 -0.43,-7.42c-0.21,-3.71 -0.42,-7.46 -0.62,-11.23z" fill="#ffd73e" id="path2470" stroke-width="1" transform="translate(-53.6662, -44.666) scale(0.264583)"/>
    <path d="m253.88,165.3c0.89,3.01 1.73,6.02 2.56,9.03c-0.82,-3.01 -1.67,-6.02 -2.56,-9.03z" fill="#ffd73e" id="path2468" stroke-width="1" transform="translate(-53.6662, -44.666) scale(0.264583)"/>
    <path d="m251.06,156.08c0.97,3.07 1.91,6.14 2.82,9.22c-0.91,-3.08 -1.85,-6.15 -2.82,-9.22z" fill="#ffd73e" id="path2466" stroke-width="1" transform="translate(-53.6662, -44.666) scale(0.264583)"/>
    <path d="m243.56,134.16c1.72,4.68 3.38,9.41 4.97,14.16c-1.59,-4.75 -3.25,-9.48 -4.97,-14.16z" fill="#ffd73e" id="path2464" stroke-width="1" transform="translate(-53.6662, -44.666) scale(0.264583)"/>
    <path d="m231.48,104.38c2.13,4.79 4.21,9.68 6.23,14.65c-2.02,-4.97 -4.1,-9.86 -6.23,-14.65z" fill="#ffd73e" id="path2460" stroke-width="1" transform="translate(-53.6662, -44.666) scale(0.264583)"/>
    <path d="m227.14,94.95c1.47,3.09 2.91,6.24 4.34,9.43c-1.43,-3.19 -2.87,-6.34 -4.34,-9.43z" fill="#ffd73e" id="path2458" stroke-width="1" transform="translate(-53.6662, -44.666) scale(0.264583)"/>
    <path d="m222.69,85.85c1.5,2.98 2.99,6.01 4.45,9.1c-1.46,-3.09 -2.95,-6.12 -4.45,-9.1z" fill="#ffd73e" id="path2456" stroke-width="1" transform="translate(-53.6662, -44.666) scale(0.264583)"/>
    <path d="m208.81,60.91c1.58,2.55 3.14,5.17 4.7,7.88c-1.56,-2.71 -3.12,-5.33 -4.7,-7.88z" fill="#ffd73e" id="path2454" stroke-width="1" transform="translate(-53.6662, -44.666) scale(0.264583)"/>
    <path d="m201.7,50.04c2.38,3.42 4.75,7.05 7.11,10.87c-2.36,-3.82 -4.73,-7.45 -7.11,-10.87z" fill="#ffd73e" id="path2452" stroke-width="1" transform="translate(-53.6662, -44.666) scale(0.264583)"/>
    <path d="m192.7,38.16c0.6,0.71 1.21,1.47 1.84,2.26c0.8,0.99 1.59,2.01 2.39,3.05c-0.8,-1.04 -1.59,-2.06 -2.38,-3.05c-0.64,-0.79 -1.25,-1.55 -1.85,-2.26z" fill="#ffd73e" id="path2450" stroke-width="1" transform="translate(-53.6662, -44.666) scale(0.264583)"/>
    <path d="m187.74,32.73c1.51,1.47 3.16,3.28 4.96,5.43c-1.8,-2.15 -3.45,-3.96 -4.96,-5.43z" fill="#ffd73e" id="path2448" stroke-width="1" transform="translate(-53.6662, -44.666) scale(0.264583)"/>
    <path d="m170.75,125.67c0.16,13.68 0.39,25.84 0.7,32.71c0.17,3.8 0.36,7.59 0.55,11.35c-0.19,-3.76 -0.38,-7.55 -0.55,-11.35c-0.3,-6.87 -0.54,-19.03 -0.7,-32.71z" fill="#ffd73e" id="path2446" stroke-width="1" transform="translate(-53.6662, -44.666) scale(0.264583)"/>
    <path d="m170.66,64.79c-0.07,5.32 -0.12,12.06 -0.13,19.51c-0.08,8.53 -0.05,17.71 0.09,27.33c0.04,4.76 0.08,9.48 0.13,14.04c-0.05,-4.56 -0.09,-9.28 -0.13,-14.04c-0.13,-9.62 -0.17,-18.8 -0.09,-27.33c0.01,-7.45 0.06,-14.19 0.13,-19.51z" fill="#ffd73e" id="path2444" stroke-width="1" transform="translate(-53.6662, -44.666) scale(0.264583)"/>
    <path d="m170.9,55.56c-0.1,2.07 -0.18,5.25 -0.24,9.23c0.06,-3.98 0.14,-7.16 0.24,-9.23z" fill="#ffd73e" id="path2442" stroke-width="1" transform="translate(-53.6662, -44.666) scale(0.264583)"/>
    <path d="m176.6,28.77c-2.24,2.03 -3.45,5.68 -4.58,15.14c-0.01,0.09 -0.02,0.17 -0.03,0.27c-0.33,2.74 -0.65,5.88 -0.98,9.7c-0.04,0.43 -0.08,0.99 -0.11,1.68c0.03,-0.69 0.07,-1.25 0.11,-1.68c0.33,-3.82 0.66,-6.96 0.98,-9.7c0.01,-0.1 0.02,-0.18 0.03,-0.27c1.14,-9.46 2.34,-13.11 4.58,-15.14c0,0 0,0 0,0z" fill="#ffd73e" id="path2389" stroke-width="1" transform="translate(-53.6662, -44.666) scale(0.264583)"/>
    <g id="g2739" transform="translate(-2.96036e-06, -0.534539)">
     <path d="m-6.44,-14.4l0,2.01c0,0.48 0.01,1.07 0.02,1.72l0.05,1.53c0.18,6.62 0.78,17.92 1.11,20.54c0.06,0.43 0.18,1.8 0.28,3.04c0.22,2.95 1.35,11.72 1.71,13.35c0.43,1.93 0.63,2.14 2.57,2.77c1.74,0.56 3.12,1.22 3.86,1.78c0.24,0.16 0.39,0.3 0.43,0.4c0.28,0.35 0.18,0.61 -0.42,0.7c-0.32,0.04 -1.21,-0.11 -1.99,-0.34c-2.24,-0.68 -8.9,-1.96 -11.34,-2.18c-0.39,-0.04 -0.82,-0.07 -1.25,-0.1c-1.63,-0.07 -3.51,-0.08 -6.01,-0.08c-1.58,0 -2.97,0.02 -4.3,0.06c-3.05,0.13 -6.03,0.37 -8.4,0.7c-7.41,1.05 -9.78,1.55 -15.21,3.23c-1.31,0.4 -2.21,0.67 -2.79,0.89c-0.17,0.06 -0.31,0.13 -0.44,0.18c-0.86,0.42 -0.44,0.74 0.52,1.75c0.05,0.06 0.09,0.11 0.14,0.16c0.29,0.28 0.54,0.56 0.76,0.84c0.77,0.94 1.06,1.53 0.88,1.82c-0.32,0.51 -0.99,0.25 -2.34,-0.89c-4.02,-3.38 -15.06,-9.31 -23.72,-12.74c-10.77,-4.26 -21.88,-7.35 -33.34,-9.27c-3.08,-0.51 -3.12,-0.66 -3.27,1.31c-0.02,0.72 -0.04,1.56 -0.04,2.5c0,0.97 0.01,1.73 0.03,2.37c0.29,2.83 1.13,5.47 2.47,7.73l0.54,0.91c0.34,0.47 0.65,0.82 0.91,0.98c0.18,0.11 0.62,0.35 1.16,0.64l5.7,2.83c4,2 7.33,3.63 7.41,3.63c0.07,0 1.06,0.43 2.2,0.96c7.77,3.61 22.77,9.11 26.89,9.86c1.65,0.3 1.98,0.42 2.03,0.91c0,0.02 0.01,0.04 0.01,0.05c0,0.02 -0.01,0.03 -0.01,0.05c0,0.03 0.01,0.06 0.01,0.09c0,0.34 -0.2,0.53 -0.6,0.56c-0.21,0.01 -0.52,0.02 -0.87,0.01c-0.34,0.01 -0.74,0 -1.2,-0.04c-0.68,-0.03 -1.32,-0.08 -1.67,-0.14c-0.17,-0.01 -0.31,-0.01 -0.42,-0.01c-0.5,0.25 -0.97,1.92 -1.7,5.89c-0.62,3.4 -1.01,7.42 -1.16,11.21c-0.01,2.21 0.05,4.88 0.18,8.16c0.02,0.22 0.04,0.44 0.06,0.64c0.11,0.89 0.33,4.54 0.49,8.12c0.46,10.37 1.04,14.29 2.77,18.73c0.74,1.9 1.61,3.62 2.63,5.2c0.97,1.48 2.08,2.84 3.34,4.11c0.94,0.95 2.01,1.87 3.13,2.73c1.53,1.13 3.23,2.17 5.13,3.14c1.14,0.58 2.75,1.27 3.58,1.52c0.79,0.25 1.3,0.5 1.51,0.75c0.1,0.1 0.14,0.21 0.14,0.33c0,0.05 0,0.09 -0.02,0.13c-0.04,0.66 -0.97,0.66 -3.42,0.06c-4.26,-1.06 -10.2,-5.1 -13.39,-9.11l-1.06,-1.33c-0.1,-0.07 -0.19,-0.1 -0.27,-0.06l-0.15,0.99c-0.1,0.68 -0.31,2.31 -0.46,3.62c-0.55,4.81 -4.17,17.68 -6.72,23.92c-0.29,0.69 -0.53,1.33 -0.64,1.67c-0.02,0.1 -0.04,0.19 -0.05,0.26c0.06,0.12 0.54,0.33 1.11,0.48c2.13,0.56 4.98,2.12 6.18,3.37c1.19,1.24 1.45,1.95 0.94,2.03c-0.29,0.13 -0.84,-0.03 -1.42,-0.44c-0.26,-0.14 -0.55,-0.3 -0.88,-0.5c-1.69,-1.02 -2.67,-1.52 -3.88,-1.89c-0.07,-0.02 -0.14,-0.04 -0.22,-0.06c-0.36,-0.11 -0.74,-0.2 -1.18,-0.3c-3.73,-0.82 -6.92,-0.28 -9.11,1.48c-0.18,0.16 -0.36,0.33 -0.56,0.53c-0.16,0.16 -0.32,0.32 -0.46,0.47c-0.16,0.18 -0.3,0.37 -0.44,0.57c-0.45,0.65 -0.63,0.94 -0.62,1.21c0.04,0.13 0.11,0.31 0.2,0.5c0.03,0.04 0.05,0.08 0.08,0.12c1.09,1.75 2.32,4.33 3.05,6.41c1.08,3.07 1.18,4.22 0.37,4.22c-0.34,0 -0.73,-0.51 -1.26,-1.66c-1.31,-2.79 -3.1,-6.14 -4.63,-8.76c-1.33,-2.23 -2.54,-4.07 -2.96,-4.39c-0.07,-0.05 -0.12,-0.04 -0.14,0.03c-0.06,0.31 0.62,3.14 1.44,6.02c0.23,0.65 0.34,1.11 0.33,1.41c0.01,0.24 -0.06,0.39 -0.21,0.53c-0.27,0.27 -0.5,0.15 -1.17,-0.63c-1.38,-1.59 -2.83,-6.23 -2.83,-9.07c0,-0.5 -0.06,-0.89 -0.19,-1.17c-0.06,-0.11 -0.11,-0.19 -0.17,-0.25c-0.11,-0.12 -0.2,-0.19 -0.26,-0.21c-0.04,0.02 -0.08,0.05 -0.12,0.1c-0.03,0.11 -0.04,0.37 -0.04,0.72c0.01,0.28 0.03,0.64 0.07,1.12c0.17,2.25 0.61,4.3 1.55,7.16c0.29,0.91 0.47,1.83 0.39,2.05c-0.41,1.07 -1.81,-0.27 -2.78,-2.66c-0.5,-1.24 -0.53,-1.27 -0.55,-0.49c-0.04,2.33 1.36,8.76 3.33,15.31c3.2,10.64 8.47,20.36 12.06,22.25c0.42,0.22 0.6,0.29 0.79,0.16c0.05,-0.05 0.12,-0.12 0.19,-0.2c0.06,-0.08 0.13,-0.18 0.21,-0.3c0.41,-0.62 0.49,-1.48 0.56,-6.07c0.06,-4.01 0.17,-5.38 0.42,-5.48c0.88,-0.34 1.49,1.09 1.74,3.94c0.19,1.42 0.28,3.09 0.22,4.74l-0.08,2.22l0.1,0.06l0.82,0.35c2.02,0.85 2.79,1.03 6.93,1.07c0.95,0 1.87,0.01 3.26,0.01c5.57,-0.01 11.27,-0.24 12.84,-0.53c0.22,-0.04 1.74,-0.16 3.36,-0.27c2.41,-0.15 2.97,-0.27 3.05,-0.62c0.12,-0.5 -0.08,-0.87 -3.38,-6.25c-8.71,-14.23 -14.26,-26.01 -16.21,-34.4c-0.32,-1.39 -0.54,-2.77 -0.64,-3.94c-0.1,-0.8 -0.16,-1.49 -0.17,-2.02c-0.04,-0.51 -0.02,-0.79 0.07,-0.92c0.03,-0.12 0.07,-0.21 0.13,-0.25c0.08,-0.05 0.17,-0.06 0.26,-0.05c0.03,-0.02 0.05,-0.03 0.08,-0.04c0.29,-0.06 0.48,0.11 0.6,0.55c0.08,0.14 0.14,0.31 0.14,0.48c0,0.02 0.01,0.08 0.02,0.13c0.84,3.38 3.18,10.96 4.13,13.34c0.92,2.32 2.72,6.47 3.78,8.78c0.28,0.59 0.57,1.18 0.88,1.78c0.18,0.31 0.75,1.35 1.36,2.54c0.67,1.31 1.44,2.73 1.7,3.17c0.26,0.44 0.87,1.51 1.35,2.38c0.48,0.88 1.08,1.89 1.33,2.25c0.25,0.37 0.75,1.2 1.12,1.85c0.37,0.66 1.81,3.05 3.21,5.33c1.37,2.21 2.19,3.72 2.45,4.48c0.06,0.15 0.1,0.26 0.1,0.32c0,0.01 0,0.03 -0.01,0.04c0.01,0.02 0.01,0.04 0.01,0.05c0,0.42 -0.35,1.51 -0.78,2.42c-0.37,0.77 -0.62,1.42 -0.62,1.6c0.11,-0.01 0.35,-0.1 0.64,-0.22c0.21,-0.11 0.46,-0.24 0.72,-0.39c0.93,-0.53 1.54,-0.74 2.01,-0.61c0.32,0.06 0.54,0.28 0.76,0.67c0.04,0.07 0.08,0.14 0.12,0.21l0.12,0.24c0.13,0.24 0.22,0.41 0.29,0.52c0.09,0.03 0.2,0.01 0.32,-0.04l0.84,-0.72c0.22,-0.19 0.45,-0.36 0.66,-0.5c0.01,-0.01 0.02,-0.01 0.03,-0.02c0.12,-0.09 0.25,-0.17 0.36,-0.23c0.15,-0.11 0.29,-0.18 0.34,-0.18c0.01,0 0.03,0.01 0.04,0.01c0.03,0 0.06,-0.01 0.08,-0.01c0.12,0 0.3,0.11 0.49,0.29c0.22,0.16 0.43,0.42 0.64,0.78c0.05,0.08 0.1,0.16 0.15,0.23c0.24,0.31 0.47,0.54 0.56,0.54c0.08,-0.01 0.3,-0.12 0.59,-0.3c0.3,-0.19 0.68,-0.46 1.06,-0.75c0.66,-0.5 1.39,-0.92 1.77,-1.03c0.03,-0.01 0.04,-0.01 0.06,-0.01c0.01,-0.01 0.03,-0.02 0.04,-0.02l0,0c0,0 0,0.01 0,0.01c0,0 0.01,-0.01 0.01,-0.01c0.01,0 0.02,0.01 0.02,0.01c0.01,0 0.02,-0.01 0.03,-0.01c0.33,0 0.84,0.45 1.35,1.2c0.69,1 0.98,1.26 1.72,0.62c0.08,-0.07 0.16,-0.14 0.25,-0.23c0.24,-0.23 0.51,-0.52 0.86,-0.9c0.62,-0.67 1.1,-1.05 1.64,-1.18c0.05,-0.02 0.1,-0.04 0.13,-0.04c0.01,0 0.04,0.01 0.05,0.01c0.5,-0.06 1.05,0.08 1.79,0.39c0.3,0.13 0.58,0.23 0.79,0.31c0.13,0.01 0.23,0.01 0.3,-0.01c-0.05,-0.17 -0.24,-0.54 -0.48,-1c-0.23,-0.29 -0.4,-0.59 -0.53,-0.93l-0.3,-0.45l-0.01,-0.1l-0.26,-0.47l-0.06,-5.29c-0.09,-7.23 -0.96,-16.41 -2.53,-26.73c-0.53,-3.23 -1.13,-6.45 -1.79,-9.58c-0.23,-1 -0.48,-2.1 -0.8,-3.45c-0.26,-1.11 -0.45,-1.99 -0.6,-2.71c-0.21,-0.86 -0.33,-1.43 -0.36,-1.77c0,0 0,-0.01 0,-0.01c0,0 0,0 0,0c-0.07,-0.3 -0.05,-0.47 0.08,-0.55c0.01,-0.03 0.02,-0.06 0.04,-0.08c0.33,-0.33 0.64,-0.18 1.14,0.68c0.22,0.35 0.46,0.82 0.7,1.4c0,0 0.01,0.01 0.01,0.01c1.01,2.2 1.84,5.21 2.73,9.98c0.33,1.75 0.68,3.28 0.8,3.41c0.11,0.13 0.28,-0.35 0.38,-1.06c0.21,-1.61 1.87,-7.03 2.55,-8.38c0.31,-0.6 0.6,-0.91 0.87,-0.93c0.21,-0.11 0.39,-0.04 0.55,0.21c0.01,0.03 0,0.17 -0.02,0.35c0,0.12 -0.01,0.26 -0.03,0.42c-0.04,0.72 -0.27,1.94 -0.73,4c-2.61,11.78 -2.68,12.41 -2.01,17.63c0.7,5.54 1.33,14.22 1.33,18.41c0,3.13 0.05,3.48 0.72,4.83c0.48,0.98 0.75,1.4 1.09,1.41c0.13,-0.04 0.31,-0.11 0.52,-0.19c0.06,-0.05 0.13,-0.09 0.2,-0.15c0.34,-0.25 0.64,-0.39 0.94,-0.39l0.28,-0.13l0.02,-0.01l0.01,0l0,0l0.29,0.32c0.37,0.21 0.77,0.62 1.27,1.26c0.32,0.42 0.64,0.79 0.88,1.05c0.23,0.21 0.4,0.32 0.53,0.36c0.08,-0.12 0.13,-0.42 0.13,-0.76c0,-1.07 0.43,-1.84 1.03,-1.84c0.26,0 1.3,0.54 2.3,1.19c1.01,0.65 1.9,1.19 1.97,1.19c0.08,0 0.14,-0.62 0.14,-1.38c0,-0.05 0,-0.09 0,-0.14c-0.01,-0.15 -0.01,-0.28 0,-0.41c0.02,-0.63 0.11,-0.82 0.4,-0.89c0.09,-0.06 0.19,-0.09 0.3,-0.09c0.02,0 0.06,0.03 0.1,0.06c0.28,0.06 0.49,0.3 0.74,0.83c0.28,0.59 0.72,1.02 1.27,1.21c0.33,0.11 0.65,0.19 0.82,0.2c0.01,0 0.02,0 0.02,0c0.06,-0.04 0.09,-0.1 0.09,-0.19c-0.06,-0.22 -0.23,-0.62 -0.45,-1.06c-0.52,-1.01 -0.53,-1.15 -0.15,-1.53c0.38,-0.38 0.51,-0.33 1.44,0.58c0.54,0.53 0.86,0.78 1.23,0.88l0,0c0.05,0.01 0.1,0.02 0.16,0.03c0.02,0 0.05,0.01 0.08,0.01c0,0 0,0 0,0c0.15,0.01 0.32,0.01 0.51,-0.01l0.94,-0.08l-0.03,-0.05l-0.32,-0.42l-0.68,-0.82c-0.34,-0.41 -0.64,-0.86 -0.84,-1.23c-0.02,-0.04 -0.05,-0.09 -0.07,-0.13c-0.09,-0.19 -0.15,-0.36 -0.15,-0.46c0,-0.01 0,-0.03 0.01,-0.04c0,-0.01 -0.01,-0.03 -0.01,-0.04c0,-0.25 0.28,-0.93 0.83,-2.01c0.65,-1.43 1.49,-3.11 1.82,-3.53c1.06,-1.37 6.37,-11.89 7.93,-15.74c3.9,-9.62 5.5,-17.05 6.47,-30.17c0.15,-1.92 0.25,-3.21 0.36,-4.11c0.06,-0.65 0.12,-1.07 0.22,-1.24c0.18,-0.63 0.42,-0.52 0.83,-0.11c0.66,0.65 0.76,6.96 0.21,12.09c-1.14,10.55 -3.42,18.91 -8.19,29.03c-0.63,1.41 -1.18,2.58 -1.49,3.11c-0.05,0.08 -0.17,0.3 -0.24,0.44c-1.04,2.05 -2.18,4.19 -3.43,6.43c-1.41,2.55 -2.6,4.78 -2.87,5.4c-0.02,0.04 -0.02,0.05 -0.03,0.08c-0.01,0.05 -0.02,0.07 -0.02,0.1c0.01,0.16 0.18,0.49 0.39,0.76c0.31,0.41 1.84,0.67 4.13,0.79c1.07,0.01 2.45,0.02 4.31,0.02c1.27,0 2.52,-0.02 3.74,-0.04c3.88,-0.15 8.26,-0.47 12.5,-0.96c1.44,-0.18 2.69,-0.34 3.43,-0.45c0.77,-0.15 1.01,-0.36 1.11,-0.94c0,-0.04 0,-0.07 0,-0.11c0,-0.18 0.03,-0.36 0.08,-0.51c0.06,-0.48 0.17,-0.64 0.5,-0.68c0.15,-0.07 0.31,-0.08 0.47,0.01c0.33,0.07 0.48,0.3 0.64,0.9c0.35,1.28 1.35,2.74 2.05,3.07c0.05,0.02 0.1,0.03 0.15,0.05c0.02,0 0.03,0.01 0.05,0.01c0,0 0,0 0,0c0.94,0.13 2.4,-1.01 4.04,-3.16c5.14,-6.73 9.37,-19.81 10.11,-31.01c0.02,-0.32 0.03,-0.63 0.04,-0.97l0.1,-3.36c0,-0.06 -0.01,-0.1 -0.01,-0.15c-0.01,-0.08 -0.03,-0.15 -0.04,-0.21l-0.32,1.77c-0.22,1.71 -0.6,3.31 -1.02,4.48c-0.18,0.54 -0.36,0.94 -0.54,1.22c-0.24,0.39 -0.47,0.61 -0.68,0.61c-0.1,0 -0.17,-0.04 -0.22,-0.13c-0.16,0 -0.24,-0.05 -0.26,-0.38c-0.03,-0.28 0,-0.78 0.08,-1.67c0.06,-0.65 0.12,-1.28 0.17,-1.81c0.07,-0.9 0.15,-1.81 0.23,-2.44c0.3,-2.26 0.34,-7.04 0.07,-7.19c-0.1,0 -0.22,0.08 -0.35,0.21c-0.3,0.43 -0.51,1.5 -0.63,3.24c-0.23,3.16 -0.83,6.23 -1.5,8.06c-0.05,0.16 -0.11,0.31 -0.17,0.45c0,0 0,0 0,0c-0.33,0.79 -0.67,1.26 -0.99,1.26c0,0 0,0 0,0c-0.25,0 -0.41,-0.06 -0.49,-0.29c-0.15,-0.39 -0.08,-1.22 0.19,-2.91c0.22,-1.37 0.47,-3.62 0.55,-5l0.14,-2.3c-0.06,0.05 -0.13,0.13 -0.21,0.24l-0.84,1.67c-2.59,5.14 -5.43,13.11 -7.13,19.97c-0.83,3.35 -1.02,3.84 -1.48,3.84c0,0 -0.01,0 -0.01,0c0,0 -0.01,0 -0.01,0c-0.12,0 -0.21,-0.02 -0.28,-0.07c-0.02,-0.01 -0.04,-0.03 -0.05,-0.05c-0.08,-0.08 -0.13,-0.21 -0.17,-0.43c-0.13,-0.38 -0.15,-0.99 -0.09,-1.77c0.06,-2.9 1.23,-7.36 3.58,-13.67l1.06,-2.83c0.05,-0.37 -0.18,-0.68 -0.97,-1.56l-1.85,-1.76c-3.35,-3.21 -5.83,-4.67 -8.45,-4.84c-0.17,0 -0.34,0 -0.53,0c-0.25,0 -0.5,0.01 -0.75,0.02c-0.33,0.03 -0.65,0.08 -0.99,0.14c-1.78,0.34 -4.23,1.33 -4.99,2.02c-0.42,0.38 -0.5,0.41 -0.77,0.06c-0.1,-0.04 -0.16,-0.12 -0.18,-0.24c-0.26,-0.41 -0.11,-0.61 1.09,-1.77c0.04,-0.04 0.09,-0.08 0.14,-0.13c0.01,-0.01 0.02,-0.01 0.03,-0.02c0.01,-0.01 0.02,-0.02 0.03,-0.03c1.32,-1.21 2.63,-1.8 4.84,-2.17c0.54,-0.09 0.99,-0.28 0.99,-0.43c0,-0.15 -0.87,-1.96 -1.94,-4.02c-4.17,-8.09 -6.35,-14.49 -7.08,-20.82c-0.17,-1.53 -0.39,-2.86 -0.48,-2.97c-0.09,-0.1 -1.17,0.66 -2.41,1.68c-1.24,1.03 -2.73,2.18 -3.31,2.57c-0.58,0.38 -1.5,1.04 -2.04,1.45c-1.6,1.23 -5.83,3.47 -7.87,4.16c-1.57,0.54 -1.92,0.58 -2.11,0.27c-0.05,-0.08 -0.08,-0.17 -0.1,-0.26c-0.06,-0.11 -0.09,-0.21 -0.06,-0.27c0.01,-0.01 0.03,-0.03 0.05,-0.05c0.03,-0.27 0.17,-0.5 0.38,-0.5c0.27,0 5.02,-2.82 7.26,-4.31c3.69,-2.47 8.15,-6.1 11.31,-9.18c0.94,-0.95 1.87,-1.94 2.72,-2.88c1.33,-1.57 3.04,-3.75 4.03,-5.14c0.26,-0.38 0.5,-0.76 0.74,-1.11c0.02,-0.05 0.05,-0.1 0.06,-0.13c0.08,-0.22 0.36,-0.71 0.62,-1.09l0.42,-0.61c0.01,-0.03 0.03,-0.06 0.04,-0.09l-1.29,-0.15c-1.89,-0.22 -4.1,-1.4 -5.47,-2.93c-1.84,-2.05 -2.72,-4.52 -2.74,-7.72c0,-0.06 0,-0.13 0,-0.19c0,-0.02 0,-0.03 0,-0.05c0,-0.05 0,-0.1 0,-0.15c0,-0.09 0,-0.18 0.01,-0.26c0.07,-2.51 0.66,-4.43 1.81,-5.96c0.22,-0.31 0.46,-0.6 0.72,-0.88c0,0 0.01,-0.01 0.02,-0.01c0.02,-0.03 0.04,-0.05 0.06,-0.08c1.71,-1.85 3.59,-2.66 6.18,-2.7c0.78,-0.01 1.42,-0.08 1.51,-0.17c0,-0.01 0.01,-0.03 0.01,-0.04c-0.02,-0.14 -0.31,-0.99 -0.68,-1.96c-1.85,-4.87 -3.19,-9.45 -4.07,-13.86c-0.75,-3.74 -1.73,-7.62 -2.56,-10.18c-0.91,-2.78 -3.02,-7.26 -4.19,-8.89c-0.51,-0.72 -0.93,-1.36 -0.93,-1.43c0,-0.08 -0.65,-0.99 -1.45,-2.03c-0.96,-1.25 -1.42,-2.02 -1.43,-2.45c-0.04,-0.28 0.08,-0.42 0.38,-0.42c0.01,0 0.03,0.01 0.04,0.01c0.01,0 0.02,-0.01 0.04,-0.01c0,0 0.01,0.01 0.02,0.01c0.04,0 0.08,-0.01 0.13,-0.01c0.46,0 1.17,0.58 2.53,2.05l1.88,2.05l-0.03,-3.23l-0.07,-2.46c-0.02,-0.71 -0.05,-1.42 -0.08,-2.14c-0.36,-6.64 -1.36,-15.16 -2.52,-21.15c-0.06,-0.33 -0.13,-0.66 -0.2,-0.99c-0.76,-3.69 -2.64,-10.69 -3.97,-14.79c-1.43,-4.43 -1.44,-4.45 -4.55,-6.56c-3.52,-2.38 -6.47,-3.47 -10.23,-3.77l-0.95,-0.07l-0.97,0zm16.39,69.74l0,0c3.25,0.04 6.35,2 7.91,5.37c0.98,2.1 0.97,5.32 -0.02,7.44c-0.84,1.79 -2.55,3.49 -4.3,4.26c-1.63,0.72 -4.39,0.92 -5.73,0.41c-2.76,-1.03 -4.6,-2.69 -5.74,-5.19c-0.91,-1.98 -0.95,-5.07 -0.09,-7c0.93,-2.08 2.25,-3.47 4.17,-4.42c1.23,-0.61 2.53,-0.89 3.8,-0.87zm-146.43,0.72c-0.44,0 -0.7,0.04 -0.74,0.1c-0.13,0.23 0.81,2.91 3.16,8.95c1.43,3.66 2.31,5.74 5.25,12.43c2.13,4.87 6.82,14.38 8.21,16.68c0.65,1.06 1.18,2.01 1.18,2.09c0,0.02 0.03,0.07 0.05,0.12c0.3,0.51 0.56,0.92 0.75,1.24c0.07,0.09 0.12,0.18 0.19,0.28l0.47,0.71l0.43,0.64l2.24,0.03l1.69,-0.08c4,-0.19 18.04,0.2 26.43,0.74c0.32,0.02 0.49,0.03 0.77,0.05c3.09,0.16 3.94,0.25 4.25,0.56c0.06,0.05 0.1,0.09 0.13,0.14c0.22,0.34 -0.04,1.49 -1.08,4.9c-2.67,8.71 -5.73,19.43 -6.41,22.3c-0.09,0.46 -0.12,0.7 -0.09,0.78c0.15,0.1 1.24,0.52 2.53,0.96c8.29,2.89 13.25,4.8 14.37,5.52c0.05,0.04 0.11,0.1 0.17,0.16l0.35,0.16l0.21,0.69c0.12,0.23 0.23,0.48 0.31,0.72c0.24,0.73 0.52,1.33 0.62,1.33c0.09,0 0.62,-1.28 1.17,-2.84c0.99,-2.83 1.86,-5.9 1.72,-6.04c-0.04,-0.04 -2.33,-1.16 -5.08,-2.48c-2.76,-1.33 -5.07,-2.46 -5.13,-2.52c-0.35,-0.35 0,-1.56 0.8,-2.81c0.5,-0.79 0.99,-1.61 1.08,-1.83c0.2,-0.44 1.96,-2.96 4.96,-7.1c1.09,-1.51 2.16,-3 2.37,-3.32c0.22,-0.32 0.97,-1.37 1.67,-2.34l0.98,-1.35c0.16,-0.28 0.25,-0.45 0.26,-0.53l-0.49,-1.68c-1.06,-3.64 -1.84,-8.93 -1.87,-12.78c-0.01,-1.09 -0.14,-4.07 -0.28,-6.62c-0.15,-2.54 -0.34,-6.09 -0.44,-7.89l-0.16,-3.02l-0.02,-0.23l-1.5,-0.76c-0.83,-0.42 -2.98,-1.38 -4.79,-2.13c-14.5,-6.03 -27.85,-9.8 -43.36,-12.27c-5.03,-0.8 -13.65,-1.61 -16.84,-1.66c-0.18,0 -0.35,-0.01 -0.49,0zm94.26,2.16l0,0c0.18,0 0.35,0 0.53,0.01c1.52,0.02 2.14,0.16 3.3,0.71c1.27,0.6 2.44,1.56 3.34,2.75c0.33,0.41 0.59,0.82 0.81,1.25c0.08,0.14 0.16,0.29 0.23,0.45c0.58,1.22 0.69,1.81 0.68,3.7c-0.01,1.93 -0.12,2.47 -0.77,3.8c-0.88,1.78 -2.56,3.4 -4.49,4.3c-1.89,0.89 -5.25,0.89 -7.14,0c-2.33,-1.09 -4.03,-3.02 -4.83,-5.22c-0.1,-0.24 -0.16,-0.45 -0.21,-0.67c-0.4,-1.44 -0.43,-2.99 0,-4.48c0.79,-2.76 2.36,-4.64 4.91,-5.88c1.2,-0.59 1.78,-0.71 3.57,-0.71c0.03,0 0.05,-0.01 0.07,-0.01zm33.16,11.07l0,0c1,0.03 1.56,0.33 1.56,0.86c0,0.64 -0.74,1.9 -1.38,2.35c-0.22,0.16 -0.42,0.26 -0.62,0.32c-0.03,0.01 -0.06,0.01 -0.09,0.02c-0.02,0.01 -0.04,0.01 -0.06,0.01c-0.04,0.01 -0.08,0.01 -0.12,0.01c-0.36,0.02 -0.75,-0.1 -1.33,-0.39c-0.45,-0.23 -1.02,-0.75 -1.26,-1.17c-0.28,-0.46 -0.37,-0.65 -0.27,-0.86c0,-0.01 0,-0.02 0.01,-0.04c0.05,-0.12 0.15,-0.24 0.31,-0.35c0,-0.01 0.01,-0.01 0.01,-0.01c0.33,-0.33 1.07,-0.58 2.1,-0.69c0.43,-0.05 0.81,-0.07 1.14,-0.06zm-0.27,7.01l0,0c0.3,0 0.58,0.04 0.88,0.1c0.58,0.13 3.03,1.15 5.44,2.26c2.52,1.17 4.05,1.8 5.25,2.04c0.68,0.08 1.36,0.08 2.01,0c0.47,-0.1 0.95,-0.26 1.52,-0.48c2.01,-0.81 1.98,-0.81 2.17,-0.31c0.21,0.55 -0.77,1.66 -2.04,2.3c-0.72,0.37 -1.06,0.55 -1.26,0.93c-0.1,0.27 -0.19,0.63 -0.27,1.08c-0.02,0.2 -0.05,0.43 -0.08,0.7c-0.24,2.24 -1.01,5.43 -2.39,9.95c-2.18,7.12 -5.13,13.04 -8.06,16.21c-2.92,3.15 -5.73,4.04 -8.91,2.82c-0.29,-0.11 -0.57,-0.25 -0.86,-0.4c-0.28,-0.13 -0.53,-0.27 -0.79,-0.46c-5.55,-3.66 -10.69,-14.66 -12.21,-26.64c-0.13,-0.98 -0.26,-1.63 -0.41,-2.04c-0.01,-0.01 -0.01,-0.03 -0.02,-0.04c-0.03,-0.07 -0.05,-0.13 -0.08,-0.18c0,-0.01 -0.01,-0.01 -0.01,-0.02c-0.07,-0.11 -0.13,-0.19 -0.2,-0.23c-0.18,-0.11 -0.61,-0.44 -1.05,-0.83l0,0c-0.15,-0.12 -0.3,-0.26 -0.44,-0.39c-0.74,-0.66 -0.98,-1.05 -0.88,-1.38c0,-0.01 0,-0.02 0,-0.03c0.01,0 0.01,0 0.01,0c0,-0.01 0,-0.01 0,-0.01c0.01,-0.04 0.02,-0.07 0.04,-0.1c0.07,-0.16 0.14,-0.25 0.36,-0.23c0.11,0 0.25,0.03 0.44,0.09c0,0 0,0 0.01,0c0.03,0.02 0.07,0.03 0.11,0.04c0.41,0.13 1,0.36 1.93,0.71c1.33,0.5 2.3,0.68 3.73,0.68c2.33,0 3.45,-0.43 9.36,-3.5c0.18,-0.1 0.33,-0.17 0.5,-0.26c0.23,-0.12 0.46,-0.24 0.69,-0.35c2.95,-1.5 4.35,-2.04 5.51,-2.03zm-44.52,6.51c1.9,0 3.83,0.6 5.5,1.66c1.15,0.68 2.13,1.58 2.91,2.67c0.43,0.58 0.8,1.19 1.1,1.84c0.38,0.83 0.56,1.34 0.64,2.21c0.28,1.35 0.29,2.71 0.05,4.02c-0.05,1.21 -0.24,1.66 -0.86,2.9c-1.7,3.38 -4.74,5.41 -8.76,5.84c-0.66,0.07 -1.73,0.02 -2.38,-0.11c-1.26,-0.24 -2.39,-0.65 -3.41,-1.2c-0.37,-0.17 -0.66,-0.32 -0.77,-0.41c-0.14,-0.1 -0.28,-0.22 -0.42,-0.34c-1.36,-1.01 -2.44,-2.33 -3.19,-3.95c-0.01,-0.02 -0.03,-0.04 -0.04,-0.06c-0.29,-0.6 -0.46,-1.03 -0.58,-1.52c-0.13,-0.45 -0.25,-0.91 -0.35,-1.38c-0.25,-1.24 -0.26,-1.96 -0.03,-3.12c0.97,-4.79 4.14,-7.95 8.96,-8.9c0.53,-0.1 1.08,-0.15 1.63,-0.15z" fill="#ffd73e" id="path2462" stroke-width="0.26"/>
     <path d="m302.22,472.14c-3.64,-0.04 -7.89,0.69 -11.23,2.16c-5.82,2.55 -11.08,8.33 -13.54,14.87c-2.7,7.17 -2.47,18.68 0.32,26.74c0.55,1.44 1.15,2.81 1.82,4.11c2.89,5.26 7.85,10.44 12.4,12.79c3.52,1.83 11.34,2.05 14.91,0.42c4.66,-2.12 9.2,-21.32 8.15,-34.45c-0.87,-10.98 -3.94,-23.48 -6.16,-25.1c-1.37,-1 -3.83,-1.51 -6.67,-1.54zm-302.71,17.12c-1.67,0 -3.34,0.16 -4.97,0.48c-14.65,2.88 -24.31,12.48 -27.24,27.08c-0.71,3.51 -0.69,5.71 0.08,9.48c0.3,1.45 0.66,2.85 1.08,4.19c0.34,1.5 0.87,2.81 1.76,4.65c0.03,0.06 0.07,0.12 0.1,0.18c2.3,4.92 5.57,8.95 9.72,12c0.42,0.37 0.85,0.73 1.26,1.06c0.35,0.27 1.24,0.73 2.36,1.24c3.09,1.67 6.55,2.9 10.36,3.66c2,0.39 5.26,0.54 7.25,0.33c12.24,-1.32 21.5,-7.49 26.66,-17.78c1.89,-3.76 2.46,-5.15 2.62,-8.82c0.73,-3.98 0.71,-8.13 -0.16,-12.24c-0.25,-2.63 -0.79,-4.2 -1.94,-6.71c-0.92,-1.99 -2.05,-3.86 -3.36,-5.59c-2.37,-3.35 -5.35,-6.08 -8.85,-8.13c-5.09,-3.23 -10.95,-5.08 -16.73,-5.07l0,-0.01z" fill="#ee4e36" id="path2510" stroke-width="1" transform="translate(-53.6662, -44.666) scale(0.264583)"/>
     <path d="m234.69,387.38c-5.71,-0.01 -11.18,5.59 -11.2,11.45c0,0.07 0,0.12 0,0.18c0.04,2.33 1.21,5.2 2.84,7.39c0.04,0.06 0.09,0.11 0.14,0.17c0.28,0.29 0.56,0.59 0.9,0.92c0.63,0.63 1.24,1.17 1.86,1.65c3.28,1.85 9.05,1.52 12.33,-0.81c4.08,-2.91 5.58,-8.45 3.58,-13.23c-1.66,-3.97 -6.72,-7.71 -10.45,-7.72zm-189.9,10.03c-0.31,0.01 -0.61,0.03 -0.91,0.05c-8.24,0.85 -12.71,9.06 -8.99,16.59c0.99,1.78 2.41,3.41 4.01,4.64c3.97,2.59 9.37,2.35 13.5,-1.1c2.8,-2.34 3.42,-3.62 3.84,-7.98c0.06,-0.7 0.11,-1.3 0.15,-1.84c-0.16,-1.75 -0.52,-3.29 -1.1,-4.6c-0.49,-0.64 -1.16,-1.35 -2.08,-2.27c-1.44,-1.44 -2.47,-2.3 -3.58,-2.82c-1.41,-0.45 -3.02,-0.69 -4.84,-0.67z" fill="#ffffff" id="path2498" stroke-width="1" transform="translate(-53.6662, -44.666) scale(0.264583)"/>
     <path d="m-12.82,89.56c-4.38,0.04 -8.25,2.62 -11.87,6.49c2.16,7.02 5.33,12.67 8.67,15.1c0.24,0.19 0.46,0.33 0.72,0.46c0.26,0.15 0.52,0.29 0.78,0.4c2.87,1.22 5.43,0.33 8.07,-2.82c2.28,-2.71 4.55,-7.43 6.4,-13.18c-4.75,-4.6 -8.95,-6.48 -12.77,-6.45z" fill="#ee7277" id="path2720" stroke-width="0.25"/>
    </g>
   </g>
  </g>
 </g>
</svg>